<?xml version="1.0" standalone="no"?>
<!DOCTYPE svg PUBLIC "-//W3C//DTD SVG 20010904//EN"
 "http://www.w3.org/TR/2001/REC-SVG-20010904/DTD/svg10.dtd">
<svg version="1.0" xmlns="http://www.w3.org/2000/svg"
 width="500.000000pt" height="500.000000pt" viewBox="0 0 500.000000 500.000000"
 preserveAspectRatio="xMidYMid meet">

<g transform="translate(0.000000,500.000000) scale(0.100000,-0.100000)"
fill="#000000" stroke="none">
<path d="M215 2659 c-94 -232 -171 -425 -173 -430 -2 -5 43 -9 101 -9 l105 0
10 28 c6 15 21 53 32 85 l21 57 164 0 164 0 21 -57 c11 -32 26 -70 32 -85 l10
-28 169 0 169 0 2 213 3 212 113 -212 114 -213 63 0 63 0 112 210 c62 116 114
210 116 210 3 0 -3 -15 -13 -32 -28 -51 -25 -199 4 -254 81 -152 275 -197 391
-91 l22 20 0 -31 0 -32 90 0 90 0 0 265 0 265 -90 0 c-83 0 -90 -1 -90 -20 0
-24 -13 -26 -30 -5 -16 19 -102 45 -150 45 -61 0 -130 -30 -177 -76 l-43 -44
25 50 25 50 -108 0 -109 0 -63 -140 c-34 -77 -64 -140 -65 -140 -1 0 -30 63
-65 140 l-62 139 -82 3 -81 3 -3 163 -2 162 -95 0 -95 0 -2 -347 -3 -347 -140
347 -139 347 -91 0 -90 0 -170 -421z m309 27 c25 -65 46 -120 46 -122 0 -2
-43 -4 -96 -4 -73 0 -95 3 -92 13 42 111 92 237 94 235 1 -2 23 -56 48 -122z
m1446 -91 c57 -29 78 -117 43 -176 -18 -31 -67 -59 -102 -59 -36 0 -88 27
-106 54 -19 29 -22 104 -5 136 28 53 112 75 170 45z"/>
<path d="M2860 2850 l0 -100 -40 0 c-38 0 -40 -2 -40 -30 l0 -30 -42 30 c-50
35 -137 56 -189 46 -20 -3 -56 -20 -80 -36 l-44 -29 -3 24 c-3 24 -5 25 -93
25 l-89 0 0 -265 0 -265 90 0 90 0 0 150 c0 165 9 206 54 235 39 26 94 22 125
-9 26 -26 26 -28 29 -201 l3 -175 90 0 89 0 0 195 0 195 25 0 25 0 0 -118 c0
-172 22 -232 100 -273 34 -17 136 -15 182 4 35 15 37 18 28 42 -15 39 -13 41
18 13 92 -86 225 -97 321 -27 l41 29 0 -30 0 -30 90 0 90 0 1 83 c0 62 3 76
10 58 18 -46 72 -102 123 -128 68 -35 182 -37 247 -5 24 12 45 20 47 17 7 -7
-9 -80 -21 -95 -52 -65 -172 -72 -231 -13 l-26 25 -75 -36 -76 -36 18 -31 c47
-81 144 -123 283 -122 106 1 182 27 238 84 57 57 72 108 72 253 1 116 1 120
17 91 26 -51 93 -113 147 -136 38 -17 69 -22 126 -21 103 1 175 29 231 89 l42
46 -67 34 -67 34 -30 -25 c-37 -32 -90 -42 -138 -27 -44 13 -67 35 -76 74 l-7
27 197 0 198 0 -6 58 c-12 111 -60 183 -149 223 -72 32 -193 33 -258 3 -54
-25 -113 -81 -140 -132 l-19 -37 -1 88 0 87 -90 0 c-83 0 -90 -1 -90 -20 0
-25 -5 -25 -39 -1 -39 28 -114 45 -171 38 -85 -10 -150 -55 -199 -137 l-21
-35 0 78 0 77 -95 0 c-87 0 -95 -2 -95 -19 0 -18 -3 -18 -47 7 -40 23 -60 27
-123 27 -83 0 -122 -15 -177 -68 l-33 -31 0 42 0 42 -55 0 -55 0 0 100 0 100
-95 0 -95 0 0 -100z m1819 -214 c27 -14 55 -59 44 -70 -4 -3 -48 -6 -100 -6
-82 0 -93 2 -93 18 1 57 86 90 149 58z m-1566 -82 c-11 -42 -12 -70 -5 -113
11 -62 9 -71 -17 -71 -34 0 -41 21 -41 132 l0 108 38 0 39 0 -14 -56z m398 18
c36 -40 45 -88 26 -135 -21 -48 -60 -72 -119 -72 -40 0 -53 5 -79 31 -56 56
-47 155 19 197 43 28 118 18 153 -21z m590 21 c67 -40 77 -144 20 -195 -41
-37 -76 -44 -124 -27 -53 19 -82 59 -82 114 0 97 103 157 186 108z"/>
<path d="M2590 1932 c0 -26 -2 -28 -35 -24 -30 4 -36 1 -45 -23 -16 -42 10
-76 55 -72 l35 2 0 73 c0 39 -2 72 -5 72 -3 0 -5 -13 -5 -28z m-6 -54 c15 -25
-4 -53 -35 -53 -25 0 -37 30 -25 61 8 20 46 14 60 -8z"/>
<path d="M3560 1931 c0 -25 -3 -28 -25 -23 -33 6 -55 -14 -55 -48 0 -35 19
-51 59 -48 l31 2 0 73 c0 40 -2 73 -5 73 -3 0 -5 -13 -5 -29z m-4 -57 c9 -34
-18 -64 -44 -48 -35 23 -27 74 12 74 19 0 27 -7 32 -26z"/>
<path d="M200 1880 l0 -70 38 0 c48 0 72 24 72 72 0 44 -25 68 -73 68 l-37 0
0 -70z m90 28 c13 -25 13 -31 0 -55 -11 -20 -25 -29 -48 -31 l-32 -3 0 61 0
61 32 -3 c23 -2 37 -11 48 -30z"/>
<path d="M2952 1878 c2 -73 2 -73 5 -14 l4 59 26 -38 25 -37 22 33 21 34 3
-52 c4 -78 22 -64 22 17 0 39 -3 70 -7 70 -5 0 -20 -18 -34 -41 l-26 -40 -26
40 c-15 23 -29 41 -32 41 -3 0 -4 -33 -3 -72z"/>
<path d="M961 1928 c0 -9 -7 -19 -13 -21 -10 -4 -10 -6 0 -6 8 -1 12 -17 12
-46 0 -36 3 -45 18 -44 10 0 12 3 5 6 -21 8 -16 81 5 86 15 4 15 5 0 6 -9 0
-19 9 -21 19 -4 15 -5 15 -6 0z"/>
<path d="M470 1889 c-26 -47 25 -100 69 -72 20 13 26 60 10 79 -18 22 -66 18
-79 -7z m74 -11 c8 -13 8 -23 0 -35 -28 -45 -89 -9 -64 38 13 24 48 22 64 -3z"/>
<path d="M722 1898 c-15 -15 -15 -61 0 -76 13 -13 68 -17 68 -4 0 4 -12 8 -26
7 -58 0 -56 64 2 76 l29 7 -30 1 c-17 0 -36 -4 -43 -11z"/>
<path d="M1150 1889 c-26 -47 25 -100 69 -72 20 13 26 60 10 79 -18 22 -66 18
-79 -7z m74 -11 c8 -13 8 -23 0 -35 -28 -45 -89 -9 -64 38 13 24 48 22 64 -3z"/>
<path d="M1401 1855 c1 -27 3 -39 6 -25 9 56 14 69 31 73 9 3 5 4 -10 4 -27
-1 -28 -3 -27 -52z"/>
<path d="M1606 1894 c-4 -10 4 -21 24 -32 41 -24 40 -47 -2 -38 -24 5 -29 3
-21 -5 18 -18 58 -7 61 18 3 17 -3 24 -22 29 -35 8 -35 38 -1 32 14 -3 25 -1
25 3 0 16 -58 10 -64 -7z"/>
<path d="M2022 1898 c-16 -16 -15 -63 2 -77 7 -6 28 -10 45 -9 30 2 31 4 31
48 0 45 -1 46 -33 48 -18 1 -38 -3 -45 -10z m64 -24 c9 -34 -18 -64 -44 -48
-35 23 -27 74 12 74 19 0 27 -7 32 -26z"/>
<path d="M2272 1856 l1 -51 6 45 c5 40 9 45 31 45 22 0 26 -5 31 -45 l7 -45
-2 50 -1 50 -37 1 -38 1 2 -51z"/>
<path d="M3252 1898 c-7 -7 -12 -24 -12 -38 0 -14 5 -31 12 -38 14 -14 54 -16
62 -3 4 5 -3 7 -14 4 -20 -5 -50 12 -50 28 0 5 18 9 40 9 26 0 40 5 40 13 0
19 -21 37 -45 37 -12 0 -26 -5 -33 -12z m58 -13 c11 -13 7 -15 -24 -15 -34 0
-44 8 -29 23 11 12 40 8 53 -8z"/>
<path d="M3743 1860 c0 -30 2 -43 4 -27 2 15 2 39 0 55 -2 15 -4 2 -4 -28z"/>
<path d="M3910 1891 c-14 -27 -13 -47 6 -65 17 -18 59 -21 69 -6 4 6 -5 7 -24
4 -23 -5 -32 -2 -40 15 -16 29 1 59 36 64 26 4 26 4 -4 6 -23 1 -35 -5 -43
-18z"/>
<path d="M4143 1860 c0 -30 2 -43 4 -27 2 15 2 39 0 55 -2 15 -4 2 -4 -28z"/>
<path d="M4322 1856 l1 -51 6 45 c5 40 9 45 31 45 22 0 26 -5 31 -45 l7 -45
-2 50 -1 50 -37 1 -38 1 2 -51z"/>
<path d="M4559 1884 c-7 -20 -6 -32 6 -50 16 -25 58 -33 71 -12 4 7 3 8 -5 4
-18 -12 -61 2 -61 19 0 11 11 15 40 15 43 0 45 2 30 31 -17 30 -68 26 -81 -7z
m69 -1 c2 -9 -7 -13 -27 -13 -30 0 -39 9 -24 24 11 10 46 3 51 -11z"/>
<path d="M4807 1903 c-15 -15 -5 -35 23 -44 43 -15 41 -44 -2 -35 -24 5 -29 3
-21 -5 18 -18 58 -7 61 17 2 16 -4 24 -28 33 -36 12 -31 35 6 28 13 -2 21 0
18 4 -6 11 -48 12 -57 2z"/>
</g>
</svg>
